<svg class="icon" viewBox="0 0 1024 1024" version="1.1" xmlns="http://www.w3.org/2000/svg"
     width="200" height="200">
    <path d="M263.045872 472.856269l-103.33945 137.785933-103.33945-137.785933h62.62997c0-200.415902 169.100917-366.385321 375.779816-366.385321v78.287462c-162.83792 0-297.492355 128.391437-297.492354 288.097859h65.761468z m629.431192 9.394496l-103.339449 137.785932h62.629969c0 159.706422-131.522936 288.097859-297.492355 288.09786v78.287461c206.678899 0 375.779817-162.83792 375.779817-366.385321h62.629969l-100.207951-137.785932z m-363.253822 281.834862c0 106.470948-84.550459 191.021407-191.021407 191.021407-106.470948 0-191.021407-84.550459-191.021407-191.021407s84.550459-191.021407 191.021407-191.021407c106.470948 0 191.021407 84.550459 191.021407 191.021407z m-112.733945 53.235474H303.755352c6.262997-3.131498 9.394495-9.394495 12.525994-12.525994l3.131498-12.525994v-15.657492h50.103976V751.559633h-50.103976v-31.314985c0-12.525994 3.131498-21.920489 6.262997-25.051987 3.131498-3.131498 12.525994-6.262997 28.183486-6.262997 12.525994 0 18.788991 3.131498 25.051988 6.262997 3.131498 3.131498 6.262997 9.394495 6.262997 21.920489v3.131498h34.446483v-9.394495c0-21.920489-3.131498-34.446483-12.525994-40.70948-15.657492-9.394495-31.314985-12.525994-59.498471-12.525994-37.577982 0-59.498471 12.525994-65.761468 34.446483V751.559633l-21.920489 28.183486v25.051988l21.920489-28.183486v12.525994c0 18.788991-6.262997 59.498471-18.78899 59.498471v28.183486l153.443425-28.183486v-31.314985zM501.039755 325.675841c0-106.470948 84.550459-191.021407 191.021407-191.021407 106.470948 0 191.021407 84.550459 191.021407 191.021407 0 106.470948-84.550459 191.021407-191.021407 191.021407-106.470948 0-191.021407-84.550459-191.021407-191.021407z m103.33945-93.944954l34.446483 59.498471h-25.051988v28.183486H657.614679l15.657492 25.051988h-56.366972v31.314985h65.761468v65.761467h40.70948V375.779817H782.874618v-28.183487h-59.498471l15.657492-25.051987H782.874618v-31.314985h-28.183487l34.446484-59.498471h-46.972477l-46.972477 90.813456-46.972478-90.813456h-43.840978z" fill="#7cba59"></path>
</svg>